<?xml version="1.0" standalone="no"?>
<!DOCTYPE svg PUBLIC "-//W3C//DTD SVG 20010904//EN"
 "http://www.w3.org/TR/2001/REC-SVG-20010904/DTD/svg10.dtd">
<svg version="1.0" xmlns="http://www.w3.org/2000/svg"
 width="512.000000pt" height="512.000000pt" viewBox="0 0 512.000000 512.000000"
 preserveAspectRatio="xMidYMid meet">
<metadata>
Created by potrace 1.16, written by Peter Selinger 2001-2019
</metadata>
<g transform="translate(0.000000,512.000000) scale(0.100000,-0.100000)"
fill="#000000" stroke="none">
<path d="M2516 4388 c-14 -19 -16 -64 -16 -291 0 -166 4 -276 10 -288 11 -20
45 -25 70 -9 23 14 28 551 5 586 -19 30 -49 31 -69 2z"/>
<path d="M2066 4349 c-18 -26 -26 -6 117 -282 65 -125 127 -232 138 -237 28
-15 59 4 59 37 0 26 -233 482 -254 495 -20 14 -45 8 -60 -13z"/>
<path d="M2973 4362 c-23 -14 -264 -489 -257 -506 10 -25 41 -38 63 -27 21 12
261 468 261 497 0 36 -37 55 -67 36z"/>
<path d="M1490 3738 c-30 -12 -68 -19 -85 -17 -16 2 -73 3 -125 4 -87 0 -101
-3 -163 -32 -251 -119 -325 -443 -147 -645 l39 -45 -31 -116 c-22 -83 -36
-118 -48 -122 -10 -3 -75 10 -146 30 -148 40 -201 43 -260 15 -73 -36 -85 -65
-184 -430 -89 -328 -91 -337 -88 -430 3 -81 8 -105 35 -162 51 -109 143 -195
253 -237 30 -11 57 -25 60 -32 4 -6 -1 -45 -12 -88 -24 -92 -21 -185 10 -253
25 -57 92 -131 147 -163 24 -15 224 -73 507 -150 516 -138 548 -143 655 -104
64 25 142 91 178 154 14 24 81 255 169 585 81 300 148 550 151 557 3 9 20 5
60 -13 59 -27 147 -36 216 -21 l35 7 143 -532 c78 -293 153 -556 166 -584 33
-73 87 -129 163 -166 58 -29 75 -33 147 -32 70 0 134 15 528 122 247 67 467
130 490 141 155 70 228 246 178 431 -23 86 -21 91 48 116 122 43 233 159 271
280 37 120 30 170 -66 534 -47 179 -95 342 -105 363 -11 20 -38 50 -60 66 -65
48 -100 48 -268 5 -80 -21 -153 -35 -162 -32 -10 4 -27 48 -48 123 l-33 118
41 41 c52 53 90 138 98 218 25 272 -221 506 -484 459 -62 -10 -73 -10 -123 10
-54 21 -81 23 -250 22 -36 -1 -101 -1 -145 0 -66 1 -90 -4 -137 -25 -70 -32
-129 -78 -163 -128 -25 -36 -28 -37 -63 -29 -83 19 -196 2 -268 -40 l-36 -21
-56 34 c-76 46 -129 59 -232 54 l-87 -3 -52 57 c-35 39 -75 68 -119 90 l-67
33 -210 2 c-191 1 -215 0 -265 -19z m248 -79 c204 7 205 7 258 -21 52 -27 97
-72 130 -128 23 -39 50 -45 115 -30 185 45 359 -79 375 -266 8 -92 11 -99 51
-121 162 -92 208 -289 103 -444 -38 -57 -38 -78 4 -128 104 -124 82 -295 -48
-375 -67 -42 -164 -48 -230 -17 -63 31 -112 89 -132 158 -15 53 -15 62 0 133
19 88 12 125 -34 175 -15 17 -39 47 -55 67 -47 65 -79 78 -187 78 -119 0 -173
18 -241 80 -29 26 -62 52 -75 59 -36 19 -94 16 -158 -9 -39 -15 -82 -22 -126
-23 -76 0 -117 19 -209 98 -30 26 -81 59 -114 75 -134 64 -200 159 -198 285 1
136 64 239 178 296 77 38 167 48 236 26 41 -12 51 -12 80 1 81 35 114 42 179
36 36 -3 80 -6 98 -5z m1714 -21 c110 3 121 2 178 -24 54 -24 65 -26 99 -15
21 6 69 11 107 11 82 0 158 -31 217 -88 103 -99 134 -279 67 -388 -32 -50
-107 -114 -167 -141 -31 -13 -79 -45 -107 -69 -113 -102 -206 -126 -321 -84
-119 44 -151 40 -229 -28 -92 -81 -134 -97 -256 -98 -58 0 -113 -4 -122 -8
-15 -7 -16 -4 -6 31 6 21 8 72 6 113 -7 122 -68 232 -163 295 -39 26 -45 35
-45 66 0 46 -26 135 -52 177 l-20 32 44 19 c67 30 127 35 196 17 34 -8 69 -13
77 -10 9 4 30 27 48 53 74 107 173 158 282 143 28 -4 103 -5 167 -4z m-2319
-704 c18 -9 64 -42 103 -74 111 -89 152 -105 259 -104 69 0 102 5 143 22 29
12 61 22 72 22 11 0 42 -20 70 -45 93 -83 207 -122 320 -109 64 7 68 4 135
-79 45 -57 47 -65 25 -97 -15 -22 -371 -1361 -368 -1384 2 -10 12 -25 24 -33
47 -31 53 -15 215 594 l153 572 23 -39 23 -39 -150 -563 c-83 -310 -156 -576
-163 -593 -32 -81 -141 -155 -227 -155 -57 0 -928 230 -988 261 -88 45 -152
161 -138 248 3 21 96 374 206 787 111 412 205 766 211 787 5 20 12 37 15 37 3
0 19 -7 37 -16z m3067 -649 c95 -352 192 -714 216 -805 52 -193 53 -235 1
-321 -52 -86 -72 -95 -552 -223 -236 -63 -451 -120 -477 -125 -93 -21 -212 28
-262 108 -18 28 -71 211 -176 601 l-151 561 23 19 c13 11 26 19 29 20 3 0 65
-223 138 -496 166 -620 157 -591 181 -599 27 -9 60 12 60 38 0 11 -70 282
-155 601 -150 558 -155 581 -145 630 12 61 0 146 -29 203 l-20 39 37 43 37 42
105 2 c95 2 111 5 170 33 36 18 89 52 118 78 30 25 57 46 62 46 4 0 39 -12 76
-26 59 -22 82 -25 154 -22 99 4 143 22 233 95 53 43 148 105 154 100 1 -2 79
-290 173 -642z m-3415 415 c72 -19 131 -35 132 -35 2 -1 -28 -108 -32 -113 -1
-1 -36 6 -76 18 -40 11 -87 20 -104 20 -36 0 -88 -30 -109 -62 -8 -13 -40
-117 -72 -233 -70 -252 -75 -326 -32 -411 30 -56 93 -119 143 -140 l33 -13
-15 -60 -15 -59 -59 23 c-109 43 -185 118 -218 218 -37 107 -34 124 98 612 84
308 74 300 326 235z m3790 -12 c22 -20 38 -71 116 -358 82 -304 90 -341 86
-406 -7 -133 -95 -259 -209 -302 -29 -11 -60 -23 -69 -27 -13 -5 -19 4 -27 38
-7 25 -14 51 -18 60 -4 11 4 18 29 26 85 29 163 137 174 243 5 45 -4 90 -51
269 -67 252 -69 259 -105 293 -46 44 -80 48 -181 22 l-88 -23 -15 59 -15 58
27 6 c14 4 71 19 126 34 129 36 185 38 220 8z m-3793 -208 c39 -11 73 -21 75
-24 2 -2 -33 -144 -79 -315 -91 -343 -88 -337 -152 -281 -45 40 -67 89 -67
152 0 71 104 458 128 475 21 16 10 17 95 -7z m3662 -32 c7 -13 37 -111 66
-218 60 -225 64 -279 25 -346 -26 -45 -91 -93 -105 -78 -9 10 -174 623 -169
628 2 1 29 10 59 18 81 23 107 22 124 -4z"/>
<path d="M1122 2788 c-6 -8 -78 -266 -161 -573 -238 -890 -221 -820 -204 -844
19 -27 49 -27 67 2 8 12 67 218 131 457 64 239 146 547 182 683 50 187 64 253
56 265 -13 21 -56 27 -71 10z"/>
<path d="M1420 2700 c-15 -28 -370 -1354 -370 -1383 0 -45 43 -63 72 -29 15
16 378 1352 378 1389 0 43 -60 60 -80 23z"/>
<path d="M1942 2571 c-11 -6 -382 -1363 -382 -1396 0 -7 9 -20 20 -30 27 -24
65 -8 74 32 4 15 88 329 187 697 98 367 179 670 179 671 0 2 -7 11 -16 19 -17
17 -42 20 -62 7z"/>
<path d="M3939 2761 l-24 -19 17 -64 c114 -435 350 -1308 358 -1325 18 -42 80
-27 80 19 0 16 -77 316 -171 666 -93 351 -174 654 -180 674 -9 36 -32 68 -49
68 -4 0 -18 -9 -31 -19z"/>
<path d="M3662 2688 c-7 -7 -12 -23 -12 -36 0 -13 40 -173 89 -356 50 -182
131 -484 181 -671 94 -351 110 -392 147 -369 42 26 43 21 -146 726 -101 376
-188 691 -193 701 -10 20 -48 23 -66 5z"/>
<path d="M3092 2538 c-7 -7 -12 -21 -12 -33 0 -18 334 -1280 361 -1362 6 -18
19 -35 29 -38 27 -9 60 12 60 37 0 18 -152 595 -328 1247 -22 79 -46 147 -53
152 -20 12 -43 11 -57 -3z"/>
</g>
</svg>
